<?xml version="1.0" encoding="utf-8"?>
<!-- Generator: Adobe Illustrator 18.0.0, SVG Export Plug-In . SVG Version: 6.00 Build 0)  -->
<!DOCTYPE svg PUBLIC "-//W3C//DTD SVG 1.1//EN" "http://www.w3.org/Graphics/SVG/1.1/DTD/svg11.dtd">
<svg version="1.1" xmlns="http://www.w3.org/2000/svg" xmlns:xlink="http://www.w3.org/1999/xlink" x="0px" y="0px"
	 viewBox="0 0 1900 1400" enable-background="new 0 0 1900 1400" xml:space="preserve">
<g id="Background">
	<rect y="0" fill="#2E2F2C" width="1900" height="1400"/>
</g>
<g id="Object">
	<rect x="76.4" y="142.6" fill="#3D3D3A" width="1745.6" height="1128.7"/>
	<rect x="948.7" y="142.6" fill="#3D3D3A" width="873.3" height="1128.7"/>
	<rect x="123.3" y="207.3" fill="#F89C51" width="1651.8" height="999.4"/>
	<rect x="949.6" y="207.3" fill="#FCB766" width="825.5" height="999.4"/>
	<rect x="123.3" y="207.3" fill="none" stroke="#FFFFFF" stroke-width="5" stroke-miterlimit="10" width="1651.8" height="999.4"/>
	<rect x="949.6" y="207.3" fill="none" stroke="#FFFFFF" stroke-width="5" stroke-miterlimit="10" width="825.5" height="999.4"/>
	<rect x="945.9" y="424.8" fill="#FCB766" width="589.1" height="564.4"/>
	<path fill="#F7901E" d="M255.3,313.4h-132v787.1h132c217.3,0,393.5-176.2,393.5-393.5v0C648.9,489.6,472.7,313.4,255.3,313.4z"/>
	<path fill="none" stroke="#FFFFFF" stroke-width="5" stroke-miterlimit="10" d="M255.3,313.4h-132v787.1h132
		c217.3,0,393.5-176.2,393.5-393.5v0C648.9,489.6,472.7,313.4,255.3,313.4z"/>
	<circle fill="#F36E21" cx="949.2" cy="707" r="128.2"/>
	<rect x="123.3" y="578.8" fill="#D33E1F" width="372.8" height="256.3"/>
	<rect x="123.3" y="578.8" fill="none" stroke="#FFFFFF" stroke-width="5" stroke-miterlimit="10" width="372.8" height="256.3"/>
	<path fill="#3D3D3A" d="M191.7,669.8c-17.2,0-31.6,11.6-35.9,27.4H138v-68.7h-24.3v157H138v-68.7h17.8
		c4.3,15.8,18.7,27.4,35.9,27.4c20.6,0,37.2-16.7,37.2-37.2C228.9,686.4,212.2,669.8,191.7,669.8z M191.7,731.8
		c-13.7,0-24.8-11.1-24.8-24.8c0-13.7,11.1-24.8,24.8-24.8c13.7,0,24.8,11.1,24.8,24.8C216.5,720.7,205.4,731.8,191.7,731.8z"/>
	<path fill="#F7901E" d="M1643.1,313.4h132v787.1h-132c-217.3,0-393.5-176.2-393.5-393.5v0C1249.5,489.6,1425.7,313.4,1643.1,313.4z
		"/>
	<path fill="none" stroke="#FFFFFF" stroke-width="5" stroke-miterlimit="10" d="M1643.1,313.4h132v787.1h-132
		c-217.3,0-393.5-176.2-393.5-393.5v0C1249.5,489.6,1425.7,313.4,1643.1,313.4z"/>
	<rect x="1402.3" y="578.8" fill="#D33E1F" width="372.8" height="256.3"/>
	<rect x="1402.3" y="578.8" fill="none" stroke="#FFFFFF" stroke-width="5" stroke-miterlimit="10" width="372.8" height="256.3"/>
	<path fill="#3D3D3A" d="M1661.9,707c0,20.6,16.7,37.2,37.2,37.2c17.2,0,31.6-11.6,35.9-27.4h17.8v68.7h24.3v-157h-24.3v68.7H1735
		c-4.3-15.8-18.7-27.4-35.9-27.4C1678.6,669.8,1661.9,686.4,1661.9,707z M1674.3,707c0-13.7,11.1-24.8,24.8-24.8
		c13.7,0,24.8,11.1,24.8,24.8c0,13.7-11.1,24.8-24.8,24.8C1685.4,731.8,1674.3,720.7,1674.3,707z"/>
	<path fill="#EF4623" d="M1077.4,707c0-70.8-57.4-128.2-128.2-128.2v256.3C1020,835.1,1077.4,777.7,1077.4,707z"/>
	<circle fill="#EF4623" cx="496.1" cy="707" r="128.2"/>
	<path fill="#F36E21" d="M624.3,707c0-70.8-57.4-128.2-128.2-128.2v256.3C566.9,835.1,624.3,777.7,624.3,707z"/>
	<circle fill="#F36E21" cx="1402.3" cy="707" r="128.2"/>
	<path fill="#EF4623" d="M1530.4,707c0-70.8-57.4-128.2-128.2-128.2v256.3C1473.1,835.1,1530.4,777.7,1530.4,707z"/>
	<line fill="none" stroke="#FFFFFF" stroke-width="5" stroke-miterlimit="10" x1="948.7" y1="207.3" x2="948.7" y2="1206.7"/>
	<circle fill="none" stroke="#FFFFFF" stroke-width="5" stroke-miterlimit="10" cx="948.7" cy="707" r="128.2"/>
	<circle fill="none" stroke="#FFFFFF" stroke-width="5" stroke-miterlimit="10" cx="1402.5" cy="707" r="128.2"/>
	<line fill="none" stroke="#FFFFFF" stroke-width="5" stroke-miterlimit="10" x1="1402.5" y1="578.8" x2="1402.5" y2="835.1"/>
	<line fill="none" stroke="#FFFFFF" stroke-width="5" stroke-miterlimit="10" x1="496.1" y1="578.8" x2="496.1" y2="835.1"/>
	<circle fill="none" stroke="#FFFFFF" stroke-width="5" stroke-miterlimit="10" cx="496.1" cy="707" r="128.2"/>
	<line fill="none" stroke="#FFFFFF" stroke-width="5" stroke-miterlimit="10" x1="648.9" y1="207.3" x2="648.9" y2="263.3"/>
	<line fill="none" stroke="#FFFFFF" stroke-width="5" stroke-miterlimit="10" x1="1249.5" y1="207.3" x2="1249.5" y2="263.3"/>
	<line fill="none" stroke="#FFFFFF" stroke-width="5" stroke-miterlimit="10" x1="648.9" y1="1150.6" x2="648.9" y2="1206.7"/>
	<line fill="none" stroke="#FFFFFF" stroke-width="5" stroke-miterlimit="10" x1="1249.5" y1="1150.6" x2="1249.5" y2="1206.7"/>
	<g>
		<line fill="none" stroke="#FFFFFF" stroke-width="5" stroke-miterlimit="10" x1="414" y1="578.8" x2="414" y2="562.3"/>
		<line fill="none" stroke="#FFFFFF" stroke-width="5" stroke-miterlimit="10" x1="315" y1="578.8" x2="315" y2="562.3"/>
		<line fill="none" stroke="#FFFFFF" stroke-width="5" stroke-miterlimit="10" x1="216" y1="578.8" x2="216" y2="562.3"/>
	</g>
	<g>
		<line fill="none" stroke="#FFFFFF" stroke-width="5" stroke-miterlimit="10" x1="414" y1="851.6" x2="414" y2="835.1"/>
		<line fill="none" stroke="#FFFFFF" stroke-width="5" stroke-miterlimit="10" x1="315" y1="851.6" x2="315" y2="835.1"/>
		<line fill="none" stroke="#FFFFFF" stroke-width="5" stroke-miterlimit="10" x1="216" y1="851.6" x2="216" y2="835.1"/>
	</g>
	<g>
		<line fill="none" stroke="#FFFFFF" stroke-width="5" stroke-miterlimit="10" x1="1673.7" y1="578.8" x2="1673.7" y2="562.3"/>
		<line fill="none" stroke="#FFFFFF" stroke-width="5" stroke-miterlimit="10" x1="1574.7" y1="578.8" x2="1574.7" y2="562.3"/>
		<line fill="none" stroke="#FFFFFF" stroke-width="5" stroke-miterlimit="10" x1="1475.7" y1="578.8" x2="1475.7" y2="562.3"/>
	</g>
	<g>
		<line fill="none" stroke="#FFFFFF" stroke-width="5" stroke-miterlimit="10" x1="1673.7" y1="851.6" x2="1673.7" y2="835.1"/>
		<line fill="none" stroke="#FFFFFF" stroke-width="5" stroke-miterlimit="10" x1="1574.7" y1="851.6" x2="1574.7" y2="835.1"/>
		<line fill="none" stroke="#FFFFFF" stroke-width="5" stroke-miterlimit="10" x1="1475.7" y1="851.6" x2="1475.7" y2="835.1"/>
	</g>
	<rect x="1067" y="279.3" fill="#F89C51" width="122" height="32"/>
	<rect x="1164" y="465.3" fill="#F89C51" width="122" height="32"/>
	<rect x="1085" y="819.3" fill="#F89C51" width="122" height="32"/>
	<rect x="999" y="991.3" fill="#F89C51" width="122" height="32"/>
	<rect x="1285" y="1057.3" fill="#F89C51" width="122" height="32"/>
	<rect x="1181" y="933.3" fill="#FFCC7A" width="122" height="32"/>
	<rect x="1087" y="599.3" fill="#FFCC7A" width="122" height="32"/>
	<rect x="991" y="365.3" fill="#FFCC7A" width="122" height="32"/>
	<rect x="1269" y="305.3" fill="#FFCC7A" width="122" height="32"/>
	<rect x="1597" y="253.3" fill="#FFCC7A" width="122" height="32"/>
	<rect x="1023" y="1121.3" fill="#FFCC7A" width="122" height="32"/>
	<rect x="1599" y="1139.3" fill="#FFCC7A" width="122" height="32"/>
	<rect x="1396" y="231.3" fill="#F89C51" width="122" height="32"/>
	<rect x="711.4" y="1091.3" fill="#F68846" width="122" height="32"/>
	<rect x="614.4" y="905.3" fill="#F68846" width="122" height="32"/>
	<rect x="693.4" y="551.3" fill="#F68846" width="122" height="32"/>
	<rect x="779.4" y="379.3" fill="#F68846" width="122" height="32"/>
	<rect x="493.4" y="313.3" fill="#F68846" width="122" height="32"/>
	<rect x="597.4" y="437.3" fill="#FCB766" width="122" height="32"/>
	<rect x="691.4" y="771.3" fill="#FCB766" width="122" height="32"/>
	<rect x="787.4" y="1005.3" fill="#FCB766" width="122" height="32"/>
	<rect x="509.4" y="1065.3" fill="#FCB766" width="122" height="32"/>
	<rect x="181.4" y="1117.3" fill="#FCB766" width="122" height="32"/>
	<rect x="755.4" y="249.3" fill="#FCB766" width="122" height="32"/>
	<rect x="179.4" y="231.3" fill="#FCB766" width="122" height="32"/>
	<rect x="382.4" y="1139.3" fill="#F68846" width="122" height="32"/>
</g>
<text x="500" y="1250" fill="white">Wood Floor Vectors by Vecteezy -
https://www.vecteezy.com/free-vector/wood-floor</text>
</svg>
